<svg xmlns="http://www.w3.org/2000/svg" xmlns:xlink="http://www.w3.org/1999/xlink" width="400" zoomAndPan="magnify" viewBox="0 0 300 299.999988" height="400" preserveAspectRatio="xMidYMid meet" version="1.0"><defs><clipPath id="14405d3e1c"><path d="M 5.03125 5.03125 L 294.96875 5.03125 L 294.96875 294.96875 L 5.03125 294.96875 Z M 5.03125 5.03125 " clip-rule="nonzero"/></clipPath><clipPath id="b297349f08"><path d="M 150 5.03125 C 69.9375 5.03125 5.03125 69.9375 5.03125 150 C 5.03125 230.0625 69.9375 294.96875 150 294.96875 C 230.0625 294.96875 294.96875 230.0625 294.96875 150 C 294.96875 69.9375 230.0625 5.03125 150 5.03125 Z M 150 5.03125 " clip-rule="nonzero"/></clipPath><clipPath id="709282a9b5"><path d="M 47.589844 47.589844 L 252.410156 47.589844 L 252.410156 252.410156 L 47.589844 252.410156 Z M 47.589844 47.589844 " clip-rule="nonzero"/></clipPath><clipPath id="211912f186"><path d="M 150 47.589844 C 93.441406 47.589844 47.589844 93.441406 47.589844 150 C 47.589844 206.558594 93.441406 252.410156 150 252.410156 C 206.558594 252.410156 252.410156 206.558594 252.410156 150 C 252.410156 93.441406 206.558594 47.589844 150 47.589844 Z M 150 47.589844 " clip-rule="nonzero"/></clipPath><clipPath id="6d0285ea28"><path d="M 65.046875 65.046875 L 234.953125 65.046875 L 234.953125 234.953125 L 65.046875 234.953125 Z M 65.046875 65.046875 " clip-rule="nonzero"/></clipPath><clipPath id="7432adec31"><path d="M 150 65.046875 C 103.082031 65.046875 65.046875 103.082031 65.046875 150 C 65.046875 196.917969 103.082031 234.953125 150 234.953125 C 196.917969 234.953125 234.953125 196.917969 234.953125 150 C 234.953125 103.082031 196.917969 65.046875 150 65.046875 Z M 150 65.046875 " clip-rule="nonzero"/></clipPath><clipPath id="0d57505407"><path d="M 31 31 L 269 31 L 269 269 L 31 269 Z M 31 31 " clip-rule="nonzero"/></clipPath><clipPath id="15bcf2c00f"><path d="M 140.949219 317.441406 L -17.363281 141.042969 L 159.035156 -17.269531 L 317.347656 159.128906 Z M 140.949219 317.441406 " clip-rule="nonzero"/></clipPath><clipPath id="14d6868ec2"><path d="M 140.949219 317.441406 L -17.363281 141.042969 L 159.035156 -17.269531 L 317.347656 159.128906 Z M 140.949219 317.441406 " clip-rule="nonzero"/></clipPath></defs><g clip-path="url(#14405d3e1c)"><g clip-path="url(#b297349f08)"><path fill="#0c0a09" d="M 5.03125 5.03125 L 294.96875 5.03125 L 294.96875 294.96875 L 5.03125 294.96875 Z M 5.03125 5.03125 " fill-opacity="1" fill-rule="nonzero"/></g></g><g clip-path="url(#709282a9b5)"><g clip-path="url(#211912f186)"><path fill="#ffffff" d="M 47.589844 47.589844 L 252.410156 47.589844 L 252.410156 252.410156 L 47.589844 252.410156 Z M 47.589844 47.589844 " fill-opacity="1" fill-rule="nonzero"/></g></g><g clip-path="url(#6d0285ea28)"><g clip-path="url(#7432adec31)"><path fill="#0c0a09" d="M 65.046875 65.046875 L 234.953125 65.046875 L 234.953125 234.953125 L 65.046875 234.953125 Z M 65.046875 65.046875 " fill-opacity="1" fill-rule="nonzero"/></g></g><g clip-path="url(#0d57505407)"><g clip-path="url(#15bcf2c00f)"><g clip-path="url(#14d6868ec2)"><path fill="#ffffff" d="M 61.75 229.195312 C 105.425781 277.859375 180.53125 281.917969 229.195312 238.242188 C 277.859375 194.570312 281.917969 119.464844 238.242188 70.800781 C 194.570312 22.136719 119.464844 18.078125 70.800781 61.75 C 22.136719 105.425781 18.078125 180.53125 61.75 229.195312 Z M 194.859375 130.519531 L 212.074219 149.703125 L 143.011719 211.683594 L 125.796875 192.5 Z M 156.980469 88.3125 L 174.199219 107.496094 L 105.136719 169.476562 L 87.917969 150.292969 Z M 156.980469 88.3125 " fill-opacity="1" fill-rule="nonzero"/></g></g></g></svg>